<?xml version="1.0" encoding="UTF-8" standalone="no"?>
<!-- Created with Inkscape (http://www.inkscape.org/) -->
<svg
   xmlns:svg="http://www.w3.org/2000/svg"
   xmlns="http://www.w3.org/2000/svg"
   version="1.0"
   width="661"
   height="151"
   viewBox="-0.962 -0.087 661 151"
   id="svg2"
   xml:space="preserve">
	<defs
   id="defs4">
	</defs>
	<g
   id="g6">
		<g
   id="g8">
			<path
   d="M 77.958,67.378 L 77.958,23.269 L 69.534,23.269 L 69.534,40.913 L 46.88,40.913 L 46.88,23.269 L 38.461,23.269 L 38.461,67.378 L 46.88,67.378 L 46.88,48.459 L 69.534,48.459 L 69.534,67.378 L 77.958,67.378 z M 115.861,51.802 C 115.861,42.516 109.107,35.428 100.219,35.428 C 91.331,35.428 84.581,42.515 84.581,51.802 C 84.581,61.158 91.331,68.241 100.219,68.241 C 109.107,68.241 115.861,61.158 115.861,51.802 M 107.569,51.802 C 107.569,57.347 104.222,61.894 100.219,61.894 C 96.211,61.894 92.865,57.347 92.865,51.802 C 92.865,46.323 96.212,41.78 100.219,41.78 C 104.222,41.78 107.569,46.322 107.569,51.802 M 148.271,65.236 L 145.332,58.753 C 141.924,60.759 139.984,61.425 137.307,61.425 C 132.493,61.425 129.156,57.619 129.156,52.069 C 129.156,46.256 132.897,42.113 138.179,42.113 C 140.588,42.113 142.121,42.713 144.465,44.522 L 148.272,38.438 C 145.666,36.901 144.602,36.432 142.323,35.897 C 140.655,35.564 138.986,35.363 137.246,35.363 C 127.355,35.363 120.737,42.113 120.737,52.139 C 120.737,61.894 126.953,68.241 136.571,68.241 C 139.651,68.241 142.787,67.651 145.665,66.441 C 146.269,66.169 147.131,65.775 148.271,65.236 M 181.42,67.378 L 181.42,44.522 C 181.42,38.635 178.617,35.7 172.997,35.7 C 169.059,35.7 165.984,37.369 162.239,41.442 L 162.239,18.656 L 154.214,18.656 L 154.214,67.378 L 162.239,67.378 L 162.239,48.666 L 163.307,47.522 C 166.786,43.781 169.124,42.113 170.798,42.113 C 172.729,42.113 173.404,43.514 173.404,47.396 L 173.404,67.379 L 181.42,67.379 L 181.42,67.378 z M 214.041,38.438 C 211.228,36.835 210.165,36.432 207.216,35.832 C 205.28,35.429 203.55,35.232 202.069,35.232 C 194.522,35.232 189.445,39.174 189.445,44.991 C 189.445,49.135 191.981,52.069 197.456,54.141 L 202.805,56.213 C 204.952,57.014 205.946,58.088 205.946,59.494 C 205.946,61.158 204.151,62.166 201.076,62.166 C 199.937,62.166 198.803,61.964 197.597,61.566 C 195.319,60.825 194.054,60.225 190.908,58.285 L 188.367,64.772 C 191.78,66.506 193.186,67.041 196.059,67.65 C 197.934,68.044 199.607,68.24 201.135,68.24 C 208.621,68.24 213.571,64.499 213.571,58.818 C 213.571,56.081 212.301,53.273 210.36,51.937 C 208.963,50.869 204.482,48.867 201.004,47.658 C 198.191,46.659 197.127,45.787 197.127,44.381 C 197.127,42.652 199.138,41.442 202.199,41.442 C 204.482,41.442 207.149,42.248 209.361,43.584 C 209.961,43.917 210.693,44.381 211.494,44.92 L 214.041,38.438 z M 246.244,65.236 L 243.314,58.753 C 239.901,60.759 237.961,61.425 235.289,61.425 C 230.475,61.425 227.133,57.619 227.133,52.069 C 227.133,46.256 230.874,42.113 236.161,42.113 C 238.57,42.113 240.103,42.713 242.442,44.522 L 246.243,38.438 C 243.651,36.901 242.577,36.432 240.299,35.897 C 238.635,35.564 236.957,35.363 235.223,35.363 C 225.327,35.363 218.718,42.113 218.718,52.139 C 218.718,61.894 224.934,68.241 234.557,68.241 C 237.627,68.241 240.773,67.651 243.651,66.441 C 244.251,66.169 245.119,65.775 246.244,65.236 M 279.403,67.378 L 279.403,44.522 C 279.403,38.635 276.586,35.7 270.979,35.7 C 267.028,35.7 263.962,37.369 260.221,41.442 L 260.221,18.656 L 252.192,18.656 L 252.192,67.378 L 260.221,67.378 L 260.221,48.666 L 261.285,47.522 C 264.758,43.781 267.093,42.113 268.775,42.113 C 270.711,42.113 271.372,43.514 271.372,47.396 L 271.372,67.379 L 279.403,67.379 L 279.403,67.378 z M 316.219,67.378 L 316.219,36.3 L 308.198,36.3 L 308.198,55.012 L 307.13,56.151 C 303.656,59.821 301.313,61.565 299.583,61.565 C 297.708,61.565 297.038,60.093 297.038,56.282 L 297.038,36.3 L 289.017,36.3 L 289.017,59.156 C 289.017,65.039 291.82,67.908 297.436,67.908 C 301.383,67.908 304.458,66.304 308.198,62.166 L 308.198,67.378 L 316.219,67.378 z M 333.605,18.656 L 325.646,18.656 L 325.646,67.373 L 333.605,67.373 L 333.605,18.656 z M 368.428,64.374 L 365.48,58.285 C 362.611,60.094 361.407,60.69 359.536,61.229 C 358.266,61.623 357.057,61.763 355.852,61.763 C 352.922,61.763 350.236,60.296 348.91,58.022 C 348.174,56.752 347.972,55.683 347.832,53.072 L 368.429,53.072 L 368.429,49.669 C 368.429,41.25 363.08,35.428 355.384,35.428 C 346.496,35.428 339.817,42.848 339.817,52.674 C 339.817,62.166 345.634,68.241 354.854,68.241 C 358.473,68.241 361.806,67.51 365.083,66.038 C 365.813,65.705 366.952,65.175 368.428,64.374 M 360.403,48.061 L 348.235,48.061 C 348.91,43.847 351.314,41.442 354.853,41.442 C 358.603,41.442 360.202,43.317 360.403,48.061 M 420.684,67.378 L 420.684,60.225 L 401.371,60.225 L 401.371,48.459 L 416.47,48.459 L 416.47,41.315 L 401.371,41.315 L 401.371,30.417 L 419.816,30.417 L 419.816,23.269 L 392.953,23.269 L 392.953,67.378 L 420.684,67.378 z M 451.772,38.438 C 448.955,36.835 447.891,36.432 444.952,35.832 C 443.016,35.429 441.272,35.232 439.801,35.232 C 432.259,35.232 427.168,39.174 427.168,44.991 C 427.168,49.135 429.708,52.069 435.189,54.141 L 440.533,56.213 C 442.679,57.014 443.682,58.088 443.682,59.494 C 443.682,61.158 441.877,62.166 438.798,62.166 C 437.668,62.166 436.533,61.964 435.319,61.566 C 433.059,60.825 431.79,60.225 428.644,58.285 L 426.103,64.772 C 429.511,66.506 430.913,67.041 433.786,67.65 C 435.657,68.044 437.335,68.24 438.868,68.24 C 446.358,68.24 451.304,64.499 451.304,58.818 C 451.304,56.081 450.029,53.273 448.093,51.937 C 446.692,50.869 442.21,48.867 438.732,47.658 C 435.924,46.659 434.851,45.787 434.851,44.381 C 434.851,42.652 436.867,41.442 439.932,41.442 C 442.21,41.442 444.882,42.248 447.09,43.584 C 447.69,43.917 448.431,44.381 449.228,44.92 L 451.772,38.438 z M 482.644,38.438 C 479.831,36.835 478.767,36.432 475.824,35.832 C 473.887,35.429 472.153,35.232 470.677,35.232 C 463.126,35.232 458.049,39.174 458.049,44.991 C 458.049,49.135 460.585,52.069 466.074,54.141 L 471.413,56.213 C 473.556,57.014 474.559,58.088 474.559,59.494 C 474.559,61.158 472.754,62.166 469.679,62.166 C 468.544,62.166 467.41,61.964 466.2,61.566 C 463.927,60.825 462.661,60.225 459.52,58.285 L 456.985,64.772 C 460.387,66.506 461.794,67.041 464.663,67.65 C 466.543,68.044 468.212,68.24 469.744,68.24 C 477.235,68.24 482.176,64.499 482.176,58.818 C 482.176,56.081 480.905,53.273 478.965,51.937 C 477.568,50.869 473.087,48.867 469.609,47.658 C 466.806,46.659 465.732,45.787 465.732,44.381 C 465.732,42.652 467.744,41.442 470.818,41.442 C 473.088,41.442 475.759,42.248 477.966,43.584 C 478.562,43.917 479.302,44.381 480.104,44.92 L 482.644,38.438 z M 498.014,18.656 L 490.059,18.656 L 490.059,67.373 L 498.014,67.373 L 498.014,18.656 z M 516.131,25.135 C 516.131,22.125 514.12,19.725 511.654,19.725 C 509.175,19.725 507.102,22.125 507.102,25.135 C 507.102,28.144 509.174,30.544 511.654,30.544 C 514.121,30.544 516.131,28.144 516.131,25.135 M 515.592,36.3 L 507.642,36.3 L 507.642,67.378 L 515.592,67.378 L 515.592,36.3 z M 552.821,67.378 L 552.821,44.522 C 552.821,38.635 550.008,35.7 544.397,35.7 C 540.459,35.7 537.379,37.369 533.639,41.442 L 533.639,36.3 L 525.618,36.3 L 525.618,67.378 L 533.639,67.378 L 533.639,48.666 L 534.707,47.522 C 538.181,43.781 540.52,42.113 542.193,42.113 C 544.129,42.113 544.795,43.514 544.795,47.396 L 544.795,67.379 L 552.821,67.379 L 552.821,67.378 z M 591.722,42.31 L 591.722,36.3 L 585.441,36.698 L 580.833,36.698 C 577.885,35.699 576.614,35.427 574.341,35.427 C 566.129,35.427 561.048,39.974 561.048,47.394 C 561.048,50.329 561.976,52.873 563.78,55.011 C 564.516,55.878 565.126,56.347 566.527,57.416 C 565.66,58.086 564.985,58.489 564.582,58.817 C 561.577,60.823 560.513,62.23 560.513,64.034 C 560.513,65.904 561.779,67.104 564.859,68.239 C 561.245,71.319 559.904,73.391 559.904,75.795 C 559.904,80.473 565.051,83.614 572.669,83.614 C 583.099,83.614 590.589,78.008 590.589,70.25 C 590.589,65.234 587.706,62.764 581.631,62.764 L 570.742,62.764 C 569.195,62.764 568.666,62.558 568.666,61.892 C 568.666,61.095 569.659,60.092 571.731,58.555 C 572.739,58.752 573.208,58.752 574.004,58.752 C 582.16,58.752 587.645,54.008 587.645,46.93 C 587.645,44.919 587.307,43.846 586.244,42.308 L 591.722,42.308 L 591.722,42.31 z M 579.483,46.992 C 579.483,50.203 577.214,52.734 574.34,52.734 C 571.472,52.734 569.194,50.203 569.194,47.058 C 569.194,43.847 571.472,41.175 574.275,41.175 C 577.144,41.175 579.483,43.781 579.483,46.992 M 583.097,71.185 C 583.097,72.394 582.23,73.796 580.762,74.935 C 578.887,76.468 576.285,77.335 573.871,77.335 C 570.201,77.335 567.323,75.797 567.323,73.857 C 567.323,73.06 567.857,71.856 568.79,70.313 C 568.996,70.116 569.193,69.713 569.465,69.249 L 579.15,69.249 C 581.832,69.249 583.097,69.919 583.097,71.185 M 623.334,64.374 L 620.395,58.285 C 617.512,60.094 616.317,60.69 614.447,61.229 C 613.176,61.623 611.968,61.763 610.772,61.763 C 607.824,61.763 605.157,60.296 603.821,58.022 C 603.075,56.752 602.883,55.683 602.743,53.072 L 623.335,53.072 L 623.335,49.669 C 623.335,41.25 617.981,35.428 610.304,35.428 C 601.411,35.428 594.728,42.848 594.728,52.674 C 594.728,62.166 600.544,68.241 609.77,68.241 C 613.37,68.241 616.712,67.51 619.998,66.038 C 620.723,65.705 621.858,65.175 623.334,64.374 M 615.314,48.061 L 603.145,48.061 C 603.821,43.847 606.225,41.442 609.769,41.442 C 613.509,41.442 615.118,43.317 615.314,48.061 M 657.417,67.378 L 657.417,44.522 C 657.417,38.635 654.618,35.7 648.993,35.7 C 645.055,35.7 641.976,37.369 638.23,41.442 L 638.23,36.3 L 630.219,36.3 L 630.219,67.378 L 638.23,67.378 L 638.23,48.666 L 639.313,47.522 C 642.782,43.781 645.126,42.113 646.785,42.113 C 648.73,42.113 649.406,43.514 649.406,47.396 L 649.406,67.379 L 657.417,67.379 L 657.417,67.378 z "
   style="fill:#eb2525"
   id="path10" />
			<path
   d="M 63.009,129.287 C 60.609,131.251 57.618,132.272 54.135,132.272 C 50.657,132.272 47.615,131.251 45.205,129.287 C 42.515,127.079 41.432,124.477 41.432,120.263 L 41.432,98.981 L 45.45,98.981 L 45.45,119.034 C 45.45,123.056 45.755,124.19 47.315,125.906 C 48.932,127.716 51.295,128.7 54.084,128.7 C 56.882,128.7 59.235,127.716 60.853,125.906 C 62.419,124.19 62.719,123.056 62.719,119.034 L 62.719,98.981 L 66.736,98.981 L 66.736,120.262 C 66.736,124.58 65.709,127.079 63.009,129.287"
   style="fill:#5e5e5e"
   id="path12" />
			<path
   d="M 90.815,131.344 L 90.815,115.603 C 90.815,114.136 90.712,113.644 90.468,113.006 C 90.131,112.265 89.244,111.825 88.209,111.825 C 85.959,111.825 83.554,113.494 79.678,117.764 L 79.678,131.344 L 76.008,131.344 L 76.008,109.135 L 79.678,109.135 L 79.678,113.794 C 81.197,112.078 81.642,111.638 82.725,110.756 C 84.389,109.331 86.592,108.544 88.655,108.544 C 92.573,108.544 94.482,110.55 94.482,114.722 L 94.482,131.344 L 90.815,131.344 L 90.815,131.344 z "
   style="fill:#5e5e5e"
   id="path14" />
			<path
   d="M 105.122,103.786 C 103.805,103.786 102.726,102.713 102.726,101.386 C 102.726,100.059 103.804,98.981 105.122,98.981 C 106.453,98.981 107.536,100.059 107.536,101.386 C 107.536,102.713 106.453,103.786 105.122,103.786 M 103.266,109.135 L 106.946,109.135 L 106.946,131.344 L 103.266,131.344 L 103.266,109.135 z "
   style="fill:#5e5e5e"
   id="path16" />
			<polygon
   points="124.251,131.986 120.872,131.986 112.533,109.135 116.55,109.135 122.686,127.13 122.78,128.016 122.827,127.177 128.859,109.135 132.886,109.135 124.251,131.986 "
   style="fill:#5e5e5e"
   id="polygon18" />
			<path
   d="M 140.138,119.92 C 140.138,125.316 142.889,128.597 147.394,128.597 C 149.358,128.597 150.779,128.063 153.188,126.389 L 154.655,129.286 C 151.369,131.344 149.508,131.985 146.616,131.985 C 140.433,131.985 136.266,127.274 136.266,120.262 C 136.266,113.202 140.433,108.543 146.757,108.543 C 151.955,108.543 155.34,112.228 155.34,117.763 L 155.34,119.919 L 140.138,119.919 L 140.138,119.92 z M 146.513,111.881 C 143.429,111.881 141.267,113.742 140.433,117.173 L 151.318,117.173 C 151.275,113.742 149.55,111.881 146.513,111.881"
   style="fill:#5e5e5e"
   id="path20" />
			<path
   d="M 172.406,113.152 C 171.665,112.519 171.276,112.266 170.836,112.266 C 169.462,112.266 167.695,114.282 165.581,118.112 L 165.581,131.345 L 161.901,131.345 L 161.901,109.136 L 165.581,109.136 L 165.581,113.153 C 168.333,109.623 169.706,108.545 171.37,108.545 C 172.204,108.545 173.236,109.079 174.216,110.064 L 172.406,113.152 z "
   style="fill:#5e5e5e"
   id="path22" />
			<path
   d="M 185.986,131.986 C 185.058,131.986 184.022,131.888 182.892,131.691 C 180.792,131.297 179.859,130.955 177.647,129.83 L 179.17,126.736 C 179.906,127.131 180.445,127.425 180.838,127.618 C 182.404,128.358 184.368,128.846 185.943,128.846 C 188.188,128.846 189.866,127.618 189.866,125.908 C 189.866,125.364 189.664,124.726 189.426,124.384 C 188.54,123.109 187.504,122.476 183.529,120.855 C 179.221,119.036 177.74,117.517 177.74,114.822 C 177.74,110.955 180.979,108.546 186.187,108.546 C 187.11,108.546 188.1,108.602 189.028,108.795 C 190.692,109.081 191.479,109.428 193.341,110.459 L 191.527,113.45 C 190.111,112.569 189.469,112.268 188.339,111.978 C 187.453,111.734 186.628,111.589 185.789,111.589 C 183.286,111.589 181.669,112.714 181.669,114.383 C 181.669,114.922 181.861,115.414 182.212,115.752 C 183.088,116.638 183.674,116.985 187.696,118.649 C 192.412,120.613 193.729,122.127 193.729,125.61 C 193.729,129.582 190.842,131.986 185.986,131.986"
   style="fill:#5e5e5e"
   id="path24" />
			<path
   d="M 203.288,103.786 C 201.971,103.786 200.892,102.713 200.892,101.386 C 200.892,100.059 201.97,98.981 203.288,98.981 C 204.619,98.981 205.697,100.059 205.697,101.386 C 205.697,102.713 204.619,103.786 203.288,103.786 M 201.422,109.135 L 205.102,109.135 L 205.102,131.344 L 201.422,131.344 L 201.422,109.135 z "
   style="fill:#5e5e5e"
   id="path26" />
			<path
   d="M 218.597,131.986 C 216.042,131.986 214.327,129.975 214.327,127.032 L 214.327,112.229 L 210.605,112.229 L 210.605,110.063 L 214.327,109.135 L 214.327,102.661 L 218.002,102.661 L 218.002,109.135 L 223.894,109.135 L 223.894,112.229 L 218.002,112.229 L 218.002,124.875 L 218.054,125.855 C 218.101,126.544 218.101,126.98 218.148,127.228 C 218.199,127.959 218.64,128.306 219.432,128.306 C 220.36,128.306 221.096,127.917 222.666,126.736 L 224.18,129.193 C 221.583,131.344 220.359,131.986 218.597,131.986"
   style="fill:#5e5e5e"
   id="path28" />
			<path
   d="M 236.245,132.572 C 235.209,135.319 234.38,137.134 233.151,139.097 C 232.27,140.513 231.632,141.446 229.818,143.756 L 226.879,141.497 C 229.082,139.04 229.818,138.065 231.093,135.759 C 232.317,133.603 232.907,132.272 234.182,128.892 L 225.942,109.135 L 230.062,109.135 L 235.401,122.719 L 236.147,124.875 L 236.63,122.719 L 241.191,109.135 L 244.969,109.135 L 236.245,132.572 z "
   style="fill:#5e5e5e"
   id="path30" />
			<path
   d="M 270.862,131.986 C 264.834,131.986 259.875,126.638 259.875,120.263 C 259.875,113.836 264.834,108.544 270.862,108.544 C 276.843,108.544 281.798,113.836 281.798,120.263 C 281.798,126.638 276.844,131.986 270.862,131.986 M 270.862,111.825 C 266.939,111.825 263.901,115.556 263.901,120.263 C 263.901,124.97 266.939,128.701 270.862,128.701 C 274.734,128.701 277.772,124.969 277.772,120.263 C 277.772,115.557 274.734,111.825 270.862,111.825"
   style="fill:#5e5e5e"
   id="path32" />
			<path
   d="M 302.339,99.272 C 300.769,98.738 299.841,98.541 298.72,98.541 C 294.932,98.541 293.067,101.091 293.067,106.388 L 293.067,109.135 L 298.317,109.135 L 298.317,112.229 L 293.067,112.229 L 293.067,131.345 L 289.397,131.345 L 289.397,112.229 L 285.67,112.229 L 285.67,110.063 L 289.397,109.135 L 289.397,105.455 C 289.397,99.131 293.124,95.114 298.96,95.114 C 300.821,95.114 302.138,95.4 303.863,96.187 L 302.339,99.272 z "
   style="fill:#5e5e5e"
   id="path34" />
			<path
   d="M 335.095,131.344 L 331.748,121.781 L 318.661,121.781 L 315.328,131.344 L 311.011,131.344 L 323.077,98.053 L 327.394,98.053 L 339.403,131.344 L 335.095,131.344 z M 325.237,103.299 L 319.94,118.112 L 330.482,118.112 L 325.237,103.299 z "
   style="fill:#5e5e5e"
   id="path36" />
			<path
   d="M 353.527,131.935 C 351.173,131.935 349.645,131.494 348.22,130.415 L 348.22,143.067 L 344.545,143.067 L 344.545,109.134 L 348.22,109.134 L 348.22,111.927 C 350.086,109.771 352.735,108.496 355.537,108.496 C 361.016,108.496 364.851,113.043 364.851,119.624 C 364.852,126.788 360.089,131.935 353.527,131.935 M 354.942,111.975 C 353.616,111.975 351.999,112.566 350.634,113.494 C 349.753,114.136 349.251,114.623 348.22,115.95 L 348.22,123.647 C 348.22,125.56 348.277,125.803 348.66,126.544 C 349.401,127.814 350.878,128.446 353.128,128.446 C 357.834,128.446 360.871,125.02 360.871,119.676 C 360.872,115.214 358.378,111.975 354.942,111.975"
   style="fill:#5e5e5e"
   id="path38" />
			<path
   d="M 380.676,131.935 C 378.323,131.935 376.814,131.494 375.389,130.415 L 375.389,143.067 L 371.709,143.067 L 371.709,109.134 L 375.389,109.134 L 375.389,111.927 C 377.254,109.771 379.894,108.496 382.692,108.496 C 388.186,108.496 392.006,113.043 392.006,119.624 C 392.006,126.788 387.253,131.935 380.676,131.935 M 382.106,111.975 C 380.78,111.975 379.158,112.566 377.793,113.494 C 376.907,114.136 376.41,114.623 375.389,115.95 L 375.389,123.647 C 375.389,125.56 375.436,125.803 375.829,126.544 C 376.565,127.814 378.032,128.446 380.287,128.446 C 384.993,128.446 388.031,125.02 388.031,119.676 C 388.032,115.214 385.538,111.975 382.106,111.975"
   style="fill:#5e5e5e"
   id="path40" />
			<rect
   width="3.675"
   height="35.747002"
   x="398.681"
   y="95.597"
   style="fill:#5e5e5e"
   id="rect42" /> 
			<path
   d="M 412.988,103.786 C 411.675,103.786 410.588,102.713 410.588,101.386 C 410.588,100.059 411.676,98.981 412.988,98.981 C 414.314,98.981 415.402,100.059 415.402,101.386 C 415.402,102.713 414.314,103.786 412.988,103.786 M 411.131,109.135 L 414.806,109.135 L 414.806,131.344 L 411.131,131.344 L 411.131,109.135 z "
   style="fill:#5e5e5e"
   id="path44" />
			<path
   d="M 425.541,119.92 C 425.541,125.316 428.293,128.597 432.812,128.597 C 434.767,128.597 436.182,128.063 438.596,126.389 L 440.064,129.286 C 436.783,131.344 434.917,131.985 432.02,131.985 C 425.846,131.985 421.679,127.274 421.679,120.262 C 421.679,113.202 425.846,108.543 432.165,108.543 C 437.368,108.543 440.747,112.228 440.747,117.763 L 440.747,119.919 L 425.541,119.919 L 425.541,119.92 z M 431.92,111.881 C 428.826,111.881 426.67,113.742 425.845,117.173 L 436.725,117.173 C 436.678,113.742 434.962,111.881 431.92,111.881"
   style="fill:#5e5e5e"
   id="path46" />
			<path
   d="M 461.836,131.344 L 461.836,128.55 C 459.871,130.758 457.274,131.986 454.472,131.986 C 449.034,131.986 445.209,127.425 445.209,120.854 C 445.209,113.691 449.967,108.544 456.539,108.544 C 458.896,108.544 460.42,108.984 461.836,110.063 L 461.836,95.597 L 465.563,95.597 L 465.563,131.344 L 461.836,131.344 z M 461.836,116.878 C 461.836,115.162 461.784,114.675 461.395,113.939 C 460.758,112.71 459.188,112.078 456.928,112.078 C 452.222,112.078 449.18,115.463 449.18,120.802 C 449.18,125.264 451.683,128.504 455.118,128.504 C 456.435,128.504 458.057,127.96 459.431,126.981 C 460.266,126.39 460.805,125.856 461.836,124.581 L 461.836,116.878 z "
   style="fill:#5e5e5e"
   id="path48" />
			<path
   d="M 503.559,104.475 C 501.881,103.496 501.202,103.153 500.165,102.807 C 498.946,102.418 496.982,102.122 495.707,102.122 C 492.027,102.122 489.524,103.936 489.524,106.683 C 489.524,109.078 490.949,110.316 497.526,113.794 C 499.724,114.966 501.449,116.049 502.626,117.075 C 504.191,118.402 505.12,120.609 505.12,122.963 C 505.12,128.504 501.009,131.986 494.488,131.986 C 492.271,131.986 490.214,131.588 488.503,130.904 C 487.274,130.416 486.44,129.92 484.331,128.504 L 486.394,125.316 C 488.204,126.545 488.986,126.98 490.121,127.425 C 491.541,127.959 493.116,128.259 494.775,128.259 C 498.595,128.259 500.907,126.441 500.907,123.347 C 500.907,122.419 500.761,121.631 500.41,121.05 C 499.88,120.066 498.947,119.137 497.668,118.402 C 497.124,118.111 495.314,117.174 492.272,115.51 C 487.42,112.908 485.358,110.358 485.358,107.026 C 485.358,101.874 489.633,98.448 496.05,98.448 C 497.906,98.448 499.828,98.687 501.496,99.231 C 502.823,99.676 503.605,100.061 505.425,101.144 L 503.559,104.475 z "
   style="fill:#5e5e5e"
   id="path50" />
			<path
   d="M 528.272,130.462 C 526.449,131.442 524.297,131.985 522.089,131.985 C 515.316,131.985 510.703,127.321 510.703,120.506 C 510.703,113.494 515.516,108.544 522.332,108.544 C 523.462,108.544 524.54,108.694 525.618,108.984 C 527.095,109.378 527.779,109.72 529.293,110.798 L 527.184,113.793 C 525.473,112.368 524.189,111.88 522.192,111.88 C 517.725,111.88 514.739,115.307 514.739,120.308 C 514.739,125.408 517.725,128.596 522.478,128.596 C 524.634,128.596 526.008,128.104 527.822,126.735 L 529.735,129.632 C 529.102,130.022 528.61,130.318 528.272,130.462"
   style="fill:#5e5e5e"
   id="path52" />
			<path
   d="M 536.991,103.786 C 535.678,103.786 534.591,102.713 534.591,101.386 C 534.591,100.059 535.679,98.981 536.991,98.981 C 538.313,98.981 539.4,100.059 539.4,101.386 C 539.4,102.713 538.313,103.786 536.991,103.786 M 535.134,109.135 L 538.805,109.135 L 538.805,131.344 L 535.134,131.344 L 535.134,109.135 z "
   style="fill:#5e5e5e"
   id="path54" />
			<path
   d="M 549.54,119.92 C 549.54,125.316 552.296,128.597 556.81,128.597 C 558.765,128.597 560.185,128.063 562.595,126.389 L 564.067,129.286 C 560.781,131.344 558.916,131.985 556.018,131.985 C 549.845,131.985 545.677,127.274 545.677,120.262 C 545.677,113.202 549.845,108.543 556.168,108.543 C 561.366,108.543 564.751,112.228 564.751,117.763 L 564.751,119.919 L 549.54,119.919 L 549.54,119.92 z M 555.918,111.881 C 552.829,111.881 550.668,113.742 549.844,117.173 L 560.723,117.173 C 560.676,113.742 558.961,111.881 555.918,111.881"
   style="fill:#5e5e5e"
   id="path56" />
			<path
   d="M 586.125,131.344 L 586.125,115.603 C 586.125,114.136 586.031,113.644 585.787,113.006 C 585.44,112.265 584.555,111.825 583.537,111.825 C 581.273,111.825 578.873,113.494 575.001,117.764 L 575.001,131.344 L 571.316,131.344 L 571.316,109.135 L 575.001,109.135 L 575.001,113.794 C 576.52,112.078 576.961,111.638 578.029,110.756 C 579.703,109.331 581.91,108.544 583.977,108.544 C 587.886,108.544 589.808,110.55 589.808,114.722 L 589.808,131.344 L 586.125,131.344 L 586.125,131.344 z "
   style="fill:#5e5e5e"
   id="path58" />
			<path
   d="M 614.025,130.462 C 612.212,131.442 610.046,131.985 607.847,131.985 C 601.078,131.985 596.465,127.321 596.465,120.506 C 596.465,113.494 601.284,108.544 608.09,108.544 C 609.215,108.544 610.293,108.694 611.371,108.984 C 612.852,109.378 613.532,109.72 615.047,110.798 L 612.942,113.793 C 611.236,112.368 609.952,111.88 607.95,111.88 C 603.478,111.88 600.493,115.307 600.493,120.308 C 600.493,125.408 603.478,128.596 608.241,128.596 C 610.392,128.596 611.77,128.104 613.585,126.735 L 615.493,129.632 C 614.86,130.022 614.363,130.318 614.025,130.462"
   style="fill:#5e5e5e"
   id="path60" />
			<path
   d="M 622.655,119.92 C 622.655,125.316 625.402,128.597 629.911,128.597 C 631.871,128.597 633.291,128.063 635.691,126.389 L 637.168,129.286 C 633.882,131.344 632.017,131.985 629.134,131.985 C 622.946,131.985 618.775,127.274 618.775,120.262 C 618.775,113.202 622.947,108.543 629.275,108.543 C 634.473,108.543 637.857,112.228 637.857,117.763 L 637.857,119.919 L 622.655,119.919 L 622.655,119.92 z M 629.03,111.881 C 625.941,111.881 623.78,113.742 622.946,117.173 L 633.835,117.173 C 633.788,113.742 632.067,111.881 629.03,111.881"
   style="fill:#5e5e5e"
   id="path62" />
			<path
   d="M 651.441,131.986 C 650.512,131.986 649.472,131.888 648.347,131.691 C 646.238,131.297 645.309,130.955 643.106,129.83 L 644.621,126.736 C 645.352,127.131 645.9,127.425 646.285,127.618 C 647.855,128.358 649.814,128.846 651.385,128.846 C 653.64,128.846 655.314,127.618 655.314,125.908 C 655.314,125.364 655.112,124.726 654.869,124.384 C 653.982,123.109 652.956,122.476 648.986,120.855 C 644.669,119.036 643.201,117.517 643.201,114.822 C 643.201,110.955 646.435,108.546 651.635,108.546 C 652.568,108.546 653.542,108.602 654.485,108.795 C 656.144,109.081 656.923,109.428 658.793,110.459 L 656.98,113.45 C 655.554,112.569 654.926,112.268 653.801,111.978 C 652.91,111.734 652.072,111.589 651.246,111.589 C 648.738,111.589 647.121,112.714 647.121,114.383 C 647.121,114.922 647.323,115.414 647.66,115.752 C 648.542,116.638 649.137,116.985 653.154,118.649 C 657.865,120.613 659.186,122.127 659.186,125.61 C 659.184,129.582 656.292,131.986 651.441,131.986"
   style="fill:#5e5e5e"
   id="path64" />
			<polygon
   points="26.508,4.397 9.896,4.397 9.896,146.466 26.508,146.466 26.508,150.863 0,150.863 0,0 26.508,0 26.508,4.397 "
   id="polygon66" />
		</g>
	</g>
</svg>